<mxfile host="app.diagrams.net" agent="Mozilla/5.0 (Windows NT 10.0; Win64; x64; rv:137.0) Gecko/20100101 Firefox/137.0" version="26.2.9">
  <diagram name="Page-1" id="xGvp370z1IDs7U6YJfkT">
    <mxGraphModel dx="1426" dy="786" grid="1" gridSize="10" guides="1" tooltips="1" connect="1" arrows="1" fold="1" page="1" pageScale="1" pageWidth="850" pageHeight="1100" math="0" shadow="0">
      <root>
        <mxCell id="0" />
        <mxCell id="1" parent="0" />
        <mxCell id="mMlrG7XZPDNxk1dG6FC4-2" value="" style="shape=umlLifeline;perimeter=lifelinePerimeter;whiteSpace=wrap;html=1;container=1;dropTarget=0;collapsible=0;recursiveResize=0;outlineConnect=0;portConstraint=eastwest;newEdgeStyle={&quot;curved&quot;:0,&quot;rounded&quot;:0};participant=umlActor;" vertex="1" parent="1">
          <mxGeometry x="130" y="160" width="20" height="440" as="geometry" />
        </mxCell>
        <mxCell id="mMlrG7XZPDNxk1dG6FC4-4" value="&lt;h1 style=&quot;margin-top: 0px;&quot;&gt;Game startup sequence&lt;/h1&gt;&lt;p&gt;Startup sequence detailing what happens when the user starts up the game.&lt;/p&gt;" style="text;html=1;whiteSpace=wrap;overflow=hidden;rounded=0;" vertex="1" parent="1">
          <mxGeometry x="130" y="40" width="680" height="70" as="geometry" />
        </mxCell>
        <mxCell id="mMlrG7XZPDNxk1dG6FC4-5" value="Game:game" style="shape=umlLifeline;perimeter=lifelinePerimeter;whiteSpace=wrap;html=1;container=1;dropTarget=0;collapsible=0;recursiveResize=0;outlineConnect=0;portConstraint=eastwest;newEdgeStyle={&quot;curved&quot;:0,&quot;rounded&quot;:0};" vertex="1" parent="1">
          <mxGeometry x="280" y="160" width="100" height="440" as="geometry" />
        </mxCell>
        <mxCell id="mMlrG7XZPDNxk1dG6FC4-7" value="" style="html=1;points=[[0,0,0,0,5],[0,1,0,0,-5],[1,0,0,0,5],[1,1,0,0,-5]];perimeter=orthogonalPerimeter;outlineConnect=0;targetShapes=umlLifeline;portConstraint=eastwest;newEdgeStyle={&quot;curved&quot;:0,&quot;rounded&quot;:0};" vertex="1" parent="mMlrG7XZPDNxk1dG6FC4-5">
          <mxGeometry x="45" y="80" width="10" height="180" as="geometry" />
        </mxCell>
        <mxCell id="mMlrG7XZPDNxk1dG6FC4-8" value="" style="html=1;points=[[0,0,0,0,5],[0,1,0,0,-5],[1,0,0,0,5],[1,1,0,0,-5]];perimeter=orthogonalPerimeter;outlineConnect=0;targetShapes=umlLifeline;portConstraint=eastwest;newEdgeStyle={&quot;curved&quot;:0,&quot;rounded&quot;:0};" vertex="1" parent="mMlrG7XZPDNxk1dG6FC4-5">
          <mxGeometry x="50" y="110" width="10" height="40" as="geometry" />
        </mxCell>
        <mxCell id="mMlrG7XZPDNxk1dG6FC4-9" value="load(files: String[])" style="html=1;align=left;spacingLeft=2;endArrow=block;rounded=0;edgeStyle=orthogonalEdgeStyle;curved=0;rounded=0;" edge="1" target="mMlrG7XZPDNxk1dG6FC4-8" parent="mMlrG7XZPDNxk1dG6FC4-5" source="mMlrG7XZPDNxk1dG6FC4-7">
          <mxGeometry relative="1" as="geometry">
            <mxPoint x="60" y="90" as="sourcePoint" />
            <Array as="points">
              <mxPoint x="80" y="100" />
              <mxPoint x="80" y="110" />
            </Array>
          </mxGeometry>
        </mxCell>
        <mxCell id="mMlrG7XZPDNxk1dG6FC4-6" value="new Game()" style="html=1;verticalAlign=bottom;endArrow=block;curved=0;rounded=0;" edge="1" parent="1">
          <mxGeometry width="80" relative="1" as="geometry">
            <mxPoint x="140.02380952380963" y="240" as="sourcePoint" />
            <mxPoint x="325" y="240" as="targetPoint" />
          </mxGeometry>
        </mxCell>
        <mxCell id="mMlrG7XZPDNxk1dG6FC4-10" value="Level:lvl1" style="shape=umlLifeline;perimeter=lifelinePerimeter;whiteSpace=wrap;html=1;container=1;dropTarget=0;collapsible=0;recursiveResize=0;outlineConnect=0;portConstraint=eastwest;newEdgeStyle={&quot;curved&quot;:0,&quot;rounded&quot;:0};" vertex="1" parent="1">
          <mxGeometry x="480" y="160" width="100" height="380" as="geometry" />
        </mxCell>
        <mxCell id="mMlrG7XZPDNxk1dG6FC4-11" value="" style="html=1;points=[[0,0,0,0,5],[0,1,0,0,-5],[1,0,0,0,5],[1,1,0,0,-5]];perimeter=orthogonalPerimeter;outlineConnect=0;targetShapes=umlLifeline;portConstraint=eastwest;newEdgeStyle={&quot;curved&quot;:0,&quot;rounded&quot;:0};" vertex="1" parent="mMlrG7XZPDNxk1dG6FC4-10">
          <mxGeometry x="45" y="180" width="10" height="80" as="geometry" />
        </mxCell>
        <mxCell id="mMlrG7XZPDNxk1dG6FC4-15" value="start(file)" style="html=1;verticalAlign=bottom;endArrow=block;curved=0;rounded=0;" edge="1" parent="1">
          <mxGeometry width="80" relative="1" as="geometry">
            <mxPoint x="335" y="340" as="sourcePoint" />
            <mxPoint x="525" y="340" as="targetPoint" />
          </mxGeometry>
        </mxCell>
        <mxCell id="mMlrG7XZPDNxk1dG6FC4-16" value="for level file 1..n" style="shape=umlFrame;whiteSpace=wrap;html=1;pointerEvents=0;width=150;height=20;" vertex="1" parent="1">
          <mxGeometry x="160" y="320" width="480" height="250" as="geometry" />
        </mxCell>
        <mxCell id="mMlrG7XZPDNxk1dG6FC4-17" value="return false" style="html=1;verticalAlign=bottom;endArrow=open;dashed=1;endSize=8;curved=0;rounded=0;" edge="1" parent="1">
          <mxGeometry relative="1" as="geometry">
            <mxPoint x="525" y="420" as="sourcePoint" />
            <mxPoint x="335" y="420" as="targetPoint" />
          </mxGeometry>
        </mxCell>
        <mxCell id="mMlrG7XZPDNxk1dG6FC4-19" value="if level failed" style="shape=umlFrame;whiteSpace=wrap;html=1;pointerEvents=0;width=150;height=20;" vertex="1" parent="1">
          <mxGeometry x="240" y="370" width="390" height="100" as="geometry" />
        </mxCell>
        <mxCell id="mMlrG7XZPDNxk1dG6FC4-20" value="" style="shape=umlDestroy;whiteSpace=wrap;html=1;strokeWidth=3;targetShapes=umlLifeline;" vertex="1" parent="1">
          <mxGeometry x="315" y="430" width="30" height="30" as="geometry" />
        </mxCell>
        <mxCell id="mMlrG7XZPDNxk1dG6FC4-21" value="" style="html=1;points=[[0,0,0,0,5],[0,1,0,0,-5],[1,0,0,0,5],[1,1,0,0,-5]];perimeter=orthogonalPerimeter;outlineConnect=0;targetShapes=umlLifeline;portConstraint=eastwest;newEdgeStyle={&quot;curved&quot;:0,&quot;rounded&quot;:0};" vertex="1" parent="1">
          <mxGeometry x="325" y="490" width="10" height="100" as="geometry" />
        </mxCell>
        <mxCell id="mMlrG7XZPDNxk1dG6FC4-22" value="if level succeed" style="shape=umlFrame;whiteSpace=wrap;html=1;pointerEvents=0;width=150;height=20;" vertex="1" parent="1">
          <mxGeometry x="240" y="470" width="390" height="90" as="geometry" />
        </mxCell>
        <mxCell id="mMlrG7XZPDNxk1dG6FC4-23" value="" style="html=1;points=[[0,0,0,0,5],[0,1,0,0,-5],[1,0,0,0,5],[1,1,0,0,-5]];perimeter=orthogonalPerimeter;outlineConnect=0;targetShapes=umlLifeline;portConstraint=eastwest;newEdgeStyle={&quot;curved&quot;:0,&quot;rounded&quot;:0};" vertex="1" parent="1">
          <mxGeometry x="525" y="470" width="10" height="40" as="geometry" />
        </mxCell>
        <mxCell id="mMlrG7XZPDNxk1dG6FC4-24" value="return true" style="html=1;verticalAlign=bottom;endArrow=open;dashed=1;endSize=8;curved=0;rounded=0;" edge="1" parent="1">
          <mxGeometry relative="1" as="geometry">
            <mxPoint x="525" y="509.76" as="sourcePoint" />
            <mxPoint x="335" y="509.76" as="targetPoint" />
          </mxGeometry>
        </mxCell>
        <mxCell id="mMlrG7XZPDNxk1dG6FC4-25" value="" style="shape=umlDestroy;whiteSpace=wrap;html=1;strokeWidth=3;targetShapes=umlLifeline;" vertex="1" parent="1">
          <mxGeometry x="515" y="430" width="30" height="30" as="geometry" />
        </mxCell>
        <mxCell id="mMlrG7XZPDNxk1dG6FC4-26" value="" style="shape=umlDestroy;whiteSpace=wrap;html=1;strokeWidth=3;targetShapes=umlLifeline;" vertex="1" parent="1">
          <mxGeometry x="515" y="520" width="30" height="30" as="geometry" />
        </mxCell>
        <mxCell id="mMlrG7XZPDNxk1dG6FC4-27" value="Success !" style="text;html=1;align=center;verticalAlign=middle;whiteSpace=wrap;rounded=0;" vertex="1" parent="1">
          <mxGeometry x="350" y="600" width="60" height="30" as="geometry" />
        </mxCell>
        <mxCell id="mMlrG7XZPDNxk1dG6FC4-28" value="" style="shape=umlDestroy;whiteSpace=wrap;html=1;strokeWidth=3;targetShapes=umlLifeline;" vertex="1" parent="1">
          <mxGeometry x="315" y="600" width="30" height="30" as="geometry" />
        </mxCell>
        <mxCell id="mMlrG7XZPDNxk1dG6FC4-30" value="Fail !" style="text;html=1;align=center;verticalAlign=middle;whiteSpace=wrap;rounded=0;" vertex="1" parent="1">
          <mxGeometry x="350" y="430" width="60" height="30" as="geometry" />
        </mxCell>
        <mxCell id="mMlrG7XZPDNxk1dG6FC4-32" value="return" style="html=1;verticalAlign=bottom;endArrow=open;dashed=1;endSize=8;curved=0;rounded=0;" edge="1" parent="1">
          <mxGeometry relative="1" as="geometry">
            <mxPoint x="325" y="589.31" as="sourcePoint" />
            <mxPoint x="139.81034482758605" y="589.31" as="targetPoint" />
            <Array as="points">
              <mxPoint x="240" y="589.31" />
            </Array>
          </mxGeometry>
        </mxCell>
      </root>
    </mxGraphModel>
  </diagram>
</mxfile>
